<svg viewBox="0 0 330 200" xmlns="http://www.w3.org/2000/svg"><g><g><g><g><g><line x1="40" y1="178" x2="35" y2="178" style="visibility: inherit;" fill="rgb(0, 0, 0)" stroke="rgb(204, 204, 204)" stroke-width="1px"></line><line x1="40" y1="160.2" x2="35" y2="160.2" style="visibility: inherit;" fill="rgb(0, 0, 0)" stroke="rgb(204, 204, 204)" stroke-width="1px"></line><line x1="40" y1="142.39999999999998" x2="35" y2="142.39999999999998" style="visibility: inherit;" fill="rgb(0, 0, 0)" stroke="rgb(204, 204, 204)" stroke-width="1px"></line><line x1="40" y1="124.60000000000004" x2="35" y2="124.60000000000004" style="visibility: inherit;" fill="rgb(0, 0, 0)" stroke="rgb(204, 204, 204)" stroke-width="1px"></line><line x1="40" y1="106.80000000000001" x2="35" y2="106.80000000000001" style="visibility: inherit;" fill="rgb(0, 0, 0)" stroke="rgb(204, 204, 204)" stroke-width="1px"></line><line x1="40" y1="89" x2="35" y2="89" style="visibility: inherit;" fill="rgb(0, 0, 0)" stroke="rgb(204, 204, 204)" stroke-width="1px"></line><line x1="40" y1="71.20000000000006" x2="35" y2="71.20000000000006" style="visibility: inherit;" fill="rgb(0, 0, 0)" stroke="rgb(204, 204, 204)" stroke-width="1px"></line><line x1="40" y1="53.39999999999997" x2="35" y2="53.39999999999997" style="visibility: inherit;" fill="rgb(0, 0, 0)" stroke="rgb(204, 204, 204)" stroke-width="1px"></line><line x1="40" y1="35.60000000000003" x2="35" y2="35.60000000000003" style="visibility: inherit;" fill="rgb(0, 0, 0)" stroke="rgb(204, 204, 204)" stroke-width="1px"></line><line x1="40" y1="17.799999999999937" x2="35" y2="17.799999999999937" style="visibility: inherit;" fill="rgb(0, 0, 0)" stroke="rgb(204, 204, 204)" stroke-width="1px"></line><line x1="40" y1="0" x2="35" y2="0" style="visibility: inherit;" fill="rgb(0, 0, 0)" stroke="rgb(204, 204, 204)" stroke-width="1px"></line></g><g transform="translate(30, 0)"><text x="0" y="178" dx="0em" dy="0.3em" style="text-anchor: end; visibility: hidden; font-family: Roboto, sans-serif; font-size: 12px; font-weight: 200;" fill="rgb(50, 49, 63)" stroke="none" stroke-width="1px">3.5</text><text x="0" y="160.2" dx="0em" dy="0.3em" style="text-anchor: end; visibility: inherit; font-family: Roboto, sans-serif; font-size: 12px; font-weight: 200;" fill="rgb(50, 49, 63)" stroke="none" stroke-width="1px">3.6</text><text x="0" y="142.39999999999998" dx="0em" dy="0.3em" style="text-anchor: end; visibility: hidden; font-family: Roboto, sans-serif; font-size: 12px; font-weight: 200;" fill="rgb(50, 49, 63)" stroke="none" stroke-width="1px">3.7</text><text x="0" y="124.60000000000004" dx="0em" dy="0.3em" style="text-anchor: end; visibility: inherit; font-family: Roboto, sans-serif; font-size: 12px; font-weight: 200;" fill="rgb(50, 49, 63)" stroke="none" stroke-width="1px">3.8</text><text x="0" y="106.80000000000001" dx="0em" dy="0.3em" style="text-anchor: end; visibility: hidden; font-family: Roboto, sans-serif; font-size: 12px; font-weight: 200;" fill="rgb(50, 49, 63)" stroke="none" stroke-width="1px">3.9</text><text x="0" y="89" dx="0em" dy="0.3em" style="text-anchor: end; visibility: inherit; font-family: Roboto, sans-serif; font-size: 12px; font-weight: 200;" fill="rgb(50, 49, 63)" stroke="none" stroke-width="1px">4</text><text x="0" y="71.20000000000006" dx="0em" dy="0.3em" style="text-anchor: end; visibility: hidden; font-family: Roboto, sans-serif; font-size: 12px; font-weight: 200;" fill="rgb(50, 49, 63)" stroke="none" stroke-width="1px">4.1</text><text x="0" y="53.39999999999997" dx="0em" dy="0.3em" style="text-anchor: end; visibility: inherit; font-family: Roboto, sans-serif; font-size: 12px; font-weight: 200;" fill="rgb(50, 49, 63)" stroke="none" stroke-width="1px">4.2</text><text x="0" y="35.60000000000003" dx="0em" dy="0.3em" style="text-anchor: end; visibility: hidden; font-family: Roboto, sans-serif; font-size: 12px; font-weight: 200;" fill="rgb(50, 49, 63)" stroke="none" stroke-width="1px">4.3</text><text x="0" y="17.799999999999937" dx="0em" dy="0.3em" style="text-anchor: end; visibility: inherit; font-family: Roboto, sans-serif; font-size: 12px; font-weight: 200;" fill="rgb(50, 49, 63)" stroke="none" stroke-width="1px">4.4</text><text x="0" y="0" dx="0em" dy="0.3em" style="text-anchor: end; visibility: hidden; font-family: Roboto, sans-serif; font-size: 12px; font-weight: 200;" fill="rgb(50, 49, 63)" stroke="none" stroke-width="1px">4.5</text></g><line x1="40" y1="0" x2="40" y2="178" fill="rgb(0, 0, 0)" stroke="rgb(204, 204, 204)" stroke-width="1px"></line></g></g><g transform="translate(40, 0)" clip-path="url(#clip_0)"><clipPath id="clip_0"><rect width="290" height="178"></rect></clipPath><g><g><g><line x1="0" y1="0" x2="0" y2="178" fill="rgb(0, 0, 0)" stroke="rgb(60, 60, 60)" stroke-width="1px" opacity="0.25"></line><line x1="19.333333333333332" y1="0" x2="19.333333333333332" y2="178" fill="rgb(0, 0, 0)" stroke="rgb(60, 60, 60)" stroke-width="1px" opacity="0.25"></line><line x1="38.666666666666664" y1="0" x2="38.666666666666664" y2="178" fill="rgb(0, 0, 0)" stroke="rgb(60, 60, 60)" stroke-width="1px" opacity="0.25"></line><line x1="58" y1="0" x2="58" y2="178" fill="rgb(0, 0, 0)" stroke="rgb(60, 60, 60)" stroke-width="1px" opacity="0.25"></line><line x1="77.33333333333333" y1="0" x2="77.33333333333333" y2="178" fill="rgb(0, 0, 0)" stroke="rgb(60, 60, 60)" stroke-width="1px" opacity="0.25"></line><line x1="96.66666666666666" y1="0" x2="96.66666666666666" y2="178" fill="rgb(0, 0, 0)" stroke="rgb(60, 60, 60)" stroke-width="1px" opacity="0.25"></line><line x1="116" y1="0" x2="116" y2="178" fill="rgb(0, 0, 0)" stroke="rgb(60, 60, 60)" stroke-width="1px" opacity="0.25"></line><line x1="135.33333333333334" y1="0" x2="135.33333333333334" y2="178" fill="rgb(0, 0, 0)" stroke="rgb(60, 60, 60)" stroke-width="1px" opacity="0.25"></line><line x1="154.66666666666666" y1="0" x2="154.66666666666666" y2="178" fill="rgb(0, 0, 0)" stroke="rgb(60, 60, 60)" stroke-width="1px" opacity="0.25"></line><line x1="174" y1="0" x2="174" y2="178" fill="rgb(0, 0, 0)" stroke="rgb(60, 60, 60)" stroke-width="1px" opacity="0.25"></line><line x1="193.33333333333331" y1="0" x2="193.33333333333331" y2="178" fill="rgb(0, 0, 0)" stroke="rgb(60, 60, 60)" stroke-width="1px" opacity="0.25"></line><line x1="212.66666666666666" y1="0" x2="212.66666666666666" y2="178" fill="rgb(0, 0, 0)" stroke="rgb(60, 60, 60)" stroke-width="1px" opacity="0.25"></line><line x1="232" y1="0" x2="232" y2="178" fill="rgb(0, 0, 0)" stroke="rgb(60, 60, 60)" stroke-width="1px" opacity="0.25"></line><line x1="251.33333333333334" y1="0" x2="251.33333333333334" y2="178" fill="rgb(0, 0, 0)" stroke="rgb(60, 60, 60)" stroke-width="1px" opacity="0.25"></line><line x1="270.6666666666667" y1="0" x2="270.6666666666667" y2="178" fill="rgb(0, 0, 0)" stroke="rgb(60, 60, 60)" stroke-width="1px" opacity="0.25"></line><line x1="290" y1="0" x2="290" y2="178" fill="rgb(0, 0, 0)" stroke="rgb(60, 60, 60)" stroke-width="1px" opacity="0.25"></line></g><g><line x1="0" y1="178" x2="290" y2="178" fill="rgb(0, 0, 0)" stroke="rgb(60, 60, 60)" stroke-width="1px" opacity="0.25"></line><line x1="0" y1="160.2" x2="290" y2="160.2" fill="rgb(0, 0, 0)" stroke="rgb(60, 60, 60)" stroke-width="1px" opacity="0.25"></line><line x1="0" y1="142.39999999999998" x2="290" y2="142.39999999999998" fill="rgb(0, 0, 0)" stroke="rgb(60, 60, 60)" stroke-width="1px" opacity="0.25"></line><line x1="0" y1="124.60000000000004" x2="290" y2="124.60000000000004" fill="rgb(0, 0, 0)" stroke="rgb(60, 60, 60)" stroke-width="1px" opacity="0.25"></line><line x1="0" y1="106.80000000000001" x2="290" y2="106.80000000000001" fill="rgb(0, 0, 0)" stroke="rgb(60, 60, 60)" stroke-width="1px" opacity="0.25"></line><line x1="0" y1="89" x2="290" y2="89" fill="rgb(0, 0, 0)" stroke="rgb(60, 60, 60)" stroke-width="1px" opacity="0.25"></line><line x1="0" y1="71.20000000000006" x2="290" y2="71.20000000000006" fill="rgb(0, 0, 0)" stroke="rgb(60, 60, 60)" stroke-width="1px" opacity="0.25"></line><line x1="0" y1="53.39999999999997" x2="290" y2="53.39999999999997" fill="rgb(0, 0, 0)" stroke="rgb(60, 60, 60)" stroke-width="1px" opacity="0.25"></line><line x1="0" y1="35.60000000000003" x2="290" y2="35.60000000000003" fill="rgb(0, 0, 0)" stroke="rgb(60, 60, 60)" stroke-width="1px" opacity="0.25"></line><line x1="0" y1="17.799999999999937" x2="290" y2="17.799999999999937" fill="rgb(0, 0, 0)" stroke="rgb(60, 60, 60)" stroke-width="1px" opacity="0.25"></line><line x1="0" y1="0" x2="290" y2="0" fill="rgb(0, 0, 0)" stroke="rgb(60, 60, 60)" stroke-width="1px" opacity="0.25"></line></g></g></g><g><g><line x1="0" y1="801" x2="290" y2="801" fill="rgb(0, 0, 0)" stroke="rgb(153, 153, 153)" stroke-width="1.5px"></line></g></g><g><g><line x1="19.333333333333332" y1="0" x2="19.333333333333332" y2="178" fill="rgb(0, 0, 0)" stroke="rgb(153, 153, 153)" stroke-width="1.5px"></line></g></g><g><g><g><g><g><path stroke="rgb(255, 112, 67)" stroke-width="2px" d="M27.066666666666666,-16.7278943611132L29,15.279365155737818L30.933333333333334,33.004443528531624L32.86666666666667,36.860213897693896L34.8,53.23076204194393L36.733333333333334,57.2731236099104L38.666666666666664,71.96278665118675L40.6,120.98540265166089L42.53333333333333,82.97729716000359L44.46666666666666,68.49893572362394L46.4,59.88341479364574L48.33333333333333,73.36453041468633L50.266666666666666,69.1836038956309L52.199999999999996,66.8093825763104L54.13333333333333,75.62525900444179L56.06666666666666,82.09522532890836L58,112.15329171101122L59.93333333333333,127.26418414976575L61.86666666666667,84.45051666144545L63.8,77.40568730608692L65.73333333333333,75.13927195274115L67.66666666666667,84.13131677642139L69.6,77.49472947087929L71.53333333333333,75.74392790070542L73.46666666666667,146.18560369579023L75.4,103.19889543884337L77.33333333333333,79.15530933956312L79.26666666666667,67.31478538465737L81.2,75.42589935859442L83.13333333333334,78.28213652926652L85.06666666666666,71.25510790760018L87,79.48542605076459L88.93333333333332,76.76237988118494L90.86666666666667,86.9160173295114L92.8,130.15705258693976L94.73333333333333,91.55565804475286L96.66666666666666,75.71196689666385L98.60000000000001,65.48501056215397L100.53333333333333,79.20934511688988L102.46666666666667,76.26744247306658L104.39999999999999,74.28029656883858L106.33333333333333,80.5201289686087L108.26666666666667,83.67510075774813L110.2,112.03901774593517L112.13333333333333,126.95942882860928L114.06666666666666,86.68692858285078L116,78.70624970948619L117.93333333333334,75.56859845849507L119.86666666666666,84.21272661051252L121.8,150.4522583113476L123.73333333333333,107.43542244588801L125.66666666666667,81.32740260692721L127.6,70.71847678143911L129.53333333333333,78.49519358229212L131.46666666666667,144.34969126076987L133.4,107.04432937438001L135.33333333333334,84.2437889393246L137.26666666666665,75.0347857842488L139.2,81.64012558279296L141.13333333333335,80.41539172540823L143.06666666666666,72.35984103805262L145,79.88431530550967L146.93333333333334,78.2296122393361L148.86666666666665,88.15270436294975L150.8,132.42955005459848L152.73333333333332,95.7079097050003L154.66666666666666,81.95966899499732L156.60000000000002,73.92403748098263L158.53333333333333,86.63862315692445L160.46666666666667,81.15598082469675L162.4,77.86714234308468L164.33333333333334,84.85573157284297L166.26666666666668,88.49543605216529L168.2,116.31417103986854L170.13333333333333,131.2793360971267L172.0666666666667,91.19804408686488L174,85.65483452401834L175.93333333333334,85.11633783294118L177.86666666666665,92.32717822619288L179.8,154.25949129240522L181.73333333333335,115.15569363103397L183.66666666666666,92.73631588259987L185.6,82.81020879530702L187.53333333333333,89.0389964090812L189.46666666666667,89.71071493071477L191.4,81.72716710234975L193.33333333333331,91.61734979906856L195.26666666666668,89.76961222624294L197.20000000000002,99.52768892845818L199.13333333333333,141.58872658491916L201.06666666666666,106.45794786501398L203,93.89101551466277L204.93333333333334,87.88342942293338L206.86666666666667,100.40601972041038L208.79999999999998,93.68780357418957L210.73333333333335,91.7084531711251L212.66666666666666,97.51453914205493L214.6,100.65909007764017L216.53333333333333,126.59400808558556L218.46666666666667,139.68953626004273L220.4,103.47938642887723L222.33333333333334,100.34446912997043L224.26666666666665,98.02035888429327L226.20000000000002,105.15126257178687L228.13333333333333,98.60126321934162L230.06666666666666,162.80328207863866L232,123.96776941808167L233.93333333333334,103.66543833847108L235.86666666666667,95.37218780777013L237.79999999999998,102.06107227481098L239.73333333333332,104.71884913728651L241.66666666666669,96.62662045649296L243.6,102.96987161929366L245.53333333333333,102.99158064064352L247.46666666666667,109.80593700132951L249.4,148.53727390123717L251.33333333333334,114.63493491264165L253.26666666666665,104.47675314576621L255.2,98.79898065943243L257.1333333333333,110.62178284298614L259.06666666666666,105.52242273313543L261,101.00913502110686L262.93333333333334,105.67373262246635L264.8666666666667,110.4045975828182L266.8,134.47579764270847L268.73333333333335,146.42099456157726L270.6666666666667,111.37598960498829L272.59999999999997,108.07621307909406L274.5333333333333,108.2069159730668L276.4666666666667,116.25494983103253L278.4,110.57397571984748" style="fill: none;" fill="none"></path></g></g></g></g><g opacity="0.2"><g><g><g><path stroke="rgb(255, 112, 67)" stroke-width="2px" d="M23.2,-0.17747783660888672L25.133333333333333,8.476412773132324L27.066666666666666,21.692018508911133L29,59.55692768096924L30.933333333333334,58.35158920288086L32.86666666666667,42.481964111328125L34.8,77.37414073944092L36.733333333333334,63.275559425354004L38.666666666666664,93.86404705047607L40.6,194.25254774093628L42.53333333333333,26.089241981506348L44.46666666666666,46.80975818634033L46.4,46.97026062011719L48.33333333333333,93.57669591903687L50.266666666666666,62.91398334503174L52.199999999999996,63.248653411865234L54.13333333333333,88.84773063659668L56.06666666666666,91.7995834350586L58,157.23874282836914L59.93333333333333,149.93002557754517L61.86666666666667,20.230860710144043L63.8,66.83852672576904L65.73333333333333,71.7396650314331L67.66666666666667,97.61934566497803L69.6,67.53986549377441L71.53333333333333,73.1177282333374L73.46666666666667,251.84805250167847L75.4,38.71885681152344L77.33333333333333,43.089938163757324L79.26666666666667,49.554001808166504L81.2,87.59256935119629L83.13333333333334,82.56649208068848L85.06666666666666,60.71456527709961L87,91.83090305328369L88.93333333333332,72.67781066894531L90.86666666666667,102.14647340774536L92.8,195.01860523223877L94.73333333333333,33.65356636047363L96.66666666666666,51.94643020629883L98.60000000000001,50.14457607269287L100.53333333333333,99.79584693908691L102.46666666666667,71.85458850860596L104.39999999999999,71.2995777130127L106.33333333333333,89.87987756729126L108.26666666666667,88.40755844116211L110.2,154.58489322662354L112.13333333333333,149.34004545211792L114.06666666666666,26.278178215026855L116,66.73523139953613L117.93333333333334,70.86212158203125L119.86666666666666,97.17891883850098L121.8,249.81155586242676L123.73333333333333,42.91016864776611L125.66666666666667,42.16537284851074L127.6,54.80508804321289L129.53333333333333,90.16026878356934L131.46666666666667,243.1314377784729L133.4,51.086286544799805L135.33333333333334,50.042978286743164L137.26666666666665,61.22128105163574L139.2,91.54813528060913L141.13333333333335,78.57829093933105L143.06666666666666,60.27651500701904L145,91.17102670669556L146.93333333333334,75.74755764007568L148.86666666666665,103.03734254837036L150.8,198.84481859207153L152.73333333333332,40.62544918060303L154.66666666666666,61.337307929992676L156.60000000000002,61.87059020996094L158.53333333333333,105.7105016708374L160.46666666666667,72.93201732635498L162.4,72.9338846206665L164.33333333333334,95.33861541748047L166.26666666666668,93.95499277114868L168.2,158.04227352142334L170.13333333333333,153.72708368301392L172.0666666666667,31.076106071472168L174,77.34002017974854L175.93333333333334,84.30859279632568L177.86666666666665,103.14343881607056L179.8,247.15796089172363L181.73333333333335,56.49999713897705L183.66666666666666,59.10724925994873L185.6,67.92104816436768L187.53333333333333,98.38217782974243L189.46666666666667,90.71829271316528L191.4,69.75184535980225L193.33333333333331,106.45262384414673L195.26666666666668,86.9980058670044L197.20000000000002,114.164803981781L199.13333333333333,204.6802830696106L201.06666666666666,53.76177978515625L203,75.04061698913574L204.93333333333334,78.87205028533936L206.86666666666667,119.18990516662598L208.79999999999998,83.6104793548584L210.73333333333335,88.73942756652832L212.66666666666666,106.2236680984497L214.6,105.37591648101807L216.53333333333333,165.49638509750366L218.46666666666667,159.33282852172852L220.4,49.164161682128906L222.33333333333334,95.64209318161011L224.26666666666665,94.53419351577759L226.20000000000002,115.84761810302734L228.13333333333333,88.77626419067383L230.06666666666666,259.10631036758423L232,65.7145004272461L233.93333333333334,73.21194171905518L235.86666666666667,82.93231201171875L237.79999999999998,112.09439897537231L239.73333333333332,108.70551443099976L241.66666666666669,84.48827743530273L243.6,112.48474836349487L245.53333333333333,103.02414417266846L247.46666666666667,120.0274715423584L249.4,206.63427925109863L251.33333333333334,63.781426429748535L253.26666666666665,89.23948049545288L255.2,90.28232192993164L257.1333333333333,128.35598611831665L259.06666666666666,97.87338256835938L261,94.23920345306396L262.93333333333334,112.67062902450562L264.8666666666667,117.50089502334595L266.8,170.58259773254395L268.73333333333335,164.33878993988037L270.6666666666667,58.80848217010498L272.59999999999997,103.12654829025269L274.5333333333333,108.40297031402588L276.4666666666667,128.32700061798096L278.4,102.05251455307007" style="fill: none;" fill="none"></path></g></g></g></g></g></g><g transform="translate(40, 178)" clip-path="url(#clip_1)"><clipPath id="clip_1"><rect width="290" height="22"></rect></clipPath><g><g><line x1="0" y1="0" x2="0" y2="5" style="visibility: inherit;" fill="rgb(0, 0, 0)" stroke="rgb(204, 204, 204)" stroke-width="1px"></line><line x1="19.333333333333332" y1="0" x2="19.333333333333332" y2="5" style="visibility: inherit;" fill="rgb(0, 0, 0)" stroke="rgb(204, 204, 204)" stroke-width="1px"></line><line x1="38.666666666666664" y1="0" x2="38.666666666666664" y2="5" style="visibility: inherit;" fill="rgb(0, 0, 0)" stroke="rgb(204, 204, 204)" stroke-width="1px"></line><line x1="58" y1="0" x2="58" y2="5" style="visibility: inherit;" fill="rgb(0, 0, 0)" stroke="rgb(204, 204, 204)" stroke-width="1px"></line><line x1="77.33333333333333" y1="0" x2="77.33333333333333" y2="5" style="visibility: inherit;" fill="rgb(0, 0, 0)" stroke="rgb(204, 204, 204)" stroke-width="1px"></line><line x1="96.66666666666666" y1="0" x2="96.66666666666666" y2="5" style="visibility: inherit;" fill="rgb(0, 0, 0)" stroke="rgb(204, 204, 204)" stroke-width="1px"></line><line x1="116" y1="0" x2="116" y2="5" style="visibility: inherit;" fill="rgb(0, 0, 0)" stroke="rgb(204, 204, 204)" stroke-width="1px"></line><line x1="135.33333333333334" y1="0" x2="135.33333333333334" y2="5" style="visibility: inherit;" fill="rgb(0, 0, 0)" stroke="rgb(204, 204, 204)" stroke-width="1px"></line><line x1="154.66666666666666" y1="0" x2="154.66666666666666" y2="5" style="visibility: inherit;" fill="rgb(0, 0, 0)" stroke="rgb(204, 204, 204)" stroke-width="1px"></line><line x1="174" y1="0" x2="174" y2="5" style="visibility: inherit;" fill="rgb(0, 0, 0)" stroke="rgb(204, 204, 204)" stroke-width="1px"></line><line x1="193.33333333333331" y1="0" x2="193.33333333333331" y2="5" style="visibility: inherit;" fill="rgb(0, 0, 0)" stroke="rgb(204, 204, 204)" stroke-width="1px"></line><line x1="212.66666666666666" y1="0" x2="212.66666666666666" y2="5" style="visibility: inherit;" fill="rgb(0, 0, 0)" stroke="rgb(204, 204, 204)" stroke-width="1px"></line><line x1="232" y1="0" x2="232" y2="5" style="visibility: inherit;" fill="rgb(0, 0, 0)" stroke="rgb(204, 204, 204)" stroke-width="1px"></line><line x1="251.33333333333334" y1="0" x2="251.33333333333334" y2="5" style="visibility: inherit;" fill="rgb(0, 0, 0)" stroke="rgb(204, 204, 204)" stroke-width="1px"></line><line x1="270.6666666666667" y1="0" x2="270.6666666666667" y2="5" style="visibility: inherit;" fill="rgb(0, 0, 0)" stroke="rgb(204, 204, 204)" stroke-width="1px"></line><line x1="290" y1="0" x2="290" y2="5" style="visibility: inherit;" fill="rgb(0, 0, 0)" stroke="rgb(204, 204, 204)" stroke-width="1px"></line></g><g transform="translate(0, 8)"><text x="0" y="0" dx="0em" dy="0.95em" style="text-anchor: middle; visibility: hidden; font-family: Roboto, sans-serif; font-size: 12px; font-weight: 200;" fill="rgb(50, 49, 63)" stroke="none" stroke-width="1px">-2k</text><text x="19.333333333333332" y="0" dx="0em" dy="0.95em" style="text-anchor: middle; visibility: inherit; font-family: Roboto, sans-serif; font-size: 12px; font-weight: 200;" fill="rgb(50, 49, 63)" stroke="none" stroke-width="1px">0</text><text x="38.666666666666664" y="0" dx="0em" dy="0.95em" style="text-anchor: middle; visibility: hidden; font-family: Roboto, sans-serif; font-size: 12px; font-weight: 200;" fill="rgb(50, 49, 63)" stroke="none" stroke-width="1px">2k</text><text x="58" y="0" dx="0em" dy="0.95em" style="text-anchor: middle; visibility: inherit; font-family: Roboto, sans-serif; font-size: 12px; font-weight: 200;" fill="rgb(50, 49, 63)" stroke="none" stroke-width="1px">4k</text><text x="77.33333333333333" y="0" dx="0em" dy="0.95em" style="text-anchor: middle; visibility: hidden; font-family: Roboto, sans-serif; font-size: 12px; font-weight: 200;" fill="rgb(50, 49, 63)" stroke="none" stroke-width="1px">6k</text><text x="96.66666666666666" y="0" dx="0em" dy="0.95em" style="text-anchor: middle; visibility: inherit; font-family: Roboto, sans-serif; font-size: 12px; font-weight: 200;" fill="rgb(50, 49, 63)" stroke="none" stroke-width="1px">8k</text><text x="116" y="0" dx="0em" dy="0.95em" style="text-anchor: middle; visibility: hidden; font-family: Roboto, sans-serif; font-size: 12px; font-weight: 200;" fill="rgb(50, 49, 63)" stroke="none" stroke-width="1px">10k</text><text x="135.33333333333334" y="0" dx="0em" dy="0.95em" style="text-anchor: middle; visibility: inherit; font-family: Roboto, sans-serif; font-size: 12px; font-weight: 200;" fill="rgb(50, 49, 63)" stroke="none" stroke-width="1px">12k</text><text x="154.66666666666666" y="0" dx="0em" dy="0.95em" style="text-anchor: middle; visibility: hidden; font-family: Roboto, sans-serif; font-size: 12px; font-weight: 200;" fill="rgb(50, 49, 63)" stroke="none" stroke-width="1px">14k</text><text x="174" y="0" dx="0em" dy="0.95em" style="text-anchor: middle; visibility: inherit; font-family: Roboto, sans-serif; font-size: 12px; font-weight: 200;" fill="rgb(50, 49, 63)" stroke="none" stroke-width="1px">16k</text><text x="193.33333333333331" y="0" dx="0em" dy="0.95em" style="text-anchor: middle; visibility: hidden; font-family: Roboto, sans-serif; font-size: 12px; font-weight: 200;" fill="rgb(50, 49, 63)" stroke="none" stroke-width="1px">18k</text><text x="212.66666666666666" y="0" dx="0em" dy="0.95em" style="text-anchor: middle; visibility: inherit; font-family: Roboto, sans-serif; font-size: 12px; font-weight: 200;" fill="rgb(50, 49, 63)" stroke="none" stroke-width="1px">20k</text><text x="232" y="0" dx="0em" dy="0.95em" style="text-anchor: middle; visibility: hidden; font-family: Roboto, sans-serif; font-size: 12px; font-weight: 200;" fill="rgb(50, 49, 63)" stroke="none" stroke-width="1px">22k</text><text x="251.33333333333334" y="0" dx="0em" dy="0.95em" style="text-anchor: middle; visibility: inherit; font-family: Roboto, sans-serif; font-size: 12px; font-weight: 200;" fill="rgb(50, 49, 63)" stroke="none" stroke-width="1px">24k</text><text x="270.6666666666667" y="0" dx="0em" dy="0.95em" style="text-anchor: middle; visibility: hidden; font-family: Roboto, sans-serif; font-size: 12px; font-weight: 200;" fill="rgb(50, 49, 63)" stroke="none" stroke-width="1px">26k</text><text x="290" y="0" dx="0em" dy="0.95em" style="text-anchor: middle; visibility: hidden; font-family: Roboto, sans-serif; font-size: 12px; font-weight: 200;" fill="rgb(50, 49, 63)" stroke="none" stroke-width="1px">28k</text></g><line x1="0" y1="0" x2="290" y2="0" fill="rgb(0, 0, 0)" stroke="rgb(204, 204, 204)" stroke-width="1px"></line></g></g></g></g></svg>